<svg width="260" height="47" viewBox="0 0 260 47" fill="none" xmlns="http://www.w3.org/2000/svg">
<path d="M77.2175 16.2828C78.0479 17.6795 78.4866 19.2783 78.4866 20.9078C78.4866 22.5373 78.0479 24.1361 77.2175 25.5328C76.3501 26.8778 75.1046 27.9299 73.6412 28.5539C71.9068 29.2903 70.0381 29.6477 68.1575 29.6028H63.3655V36.2255H57.8616V12.1992H68.1575C70.0408 12.1572 71.911 12.5254 73.6412 13.2787C75.0981 13.9052 76.3415 14.9496 77.2175 16.2828ZM72.9091 20.9061C72.9091 19.5483 72.4804 18.513 71.623 17.8001C70.7656 17.0873 69.5052 16.732 67.8418 16.7343H63.3655V25.061H67.8418C69.4873 25.061 70.7443 24.7 71.6129 23.9781C72.4815 23.2562 72.9136 22.2322 72.9091 20.9061Z" fill="#414141"/>
<path d="M91.8549 18.4425C93.0171 19.0321 93.9535 19.9941 94.5178 21.1784C95.1227 22.5278 95.4166 23.9984 95.3775 25.4793V36.2263H90.3404V34.2235C89.7075 34.953 88.9279 35.5374 88.0535 35.9377C87.0266 36.3829 85.9166 36.5983 84.7996 36.5691C83.7146 36.5849 82.639 36.3637 81.6463 35.9208C80.7246 35.5099 79.9348 34.8468 79.3662 34.0063C78.7717 33.0831 78.4717 31.9978 78.5066 30.8969V30.8256C78.4369 29.6732 78.7476 28.53 79.39 27.5753C80.0324 26.6206 80.9701 25.9085 82.056 25.5505C83.2866 25.1098 84.5855 24.8959 85.8909 24.9192C86.7138 24.9095 87.5358 24.9788 88.3457 25.1262C89.0295 25.2603 89.7029 25.444 90.3605 25.6761V25.3706C90.3359 23.1076 89.0262 21.9761 86.4316 21.9761H81.2736V17.4377L87.2241 17.492C89.1068 17.492 90.6504 17.8088 91.8549 18.4425ZM87.1368 28.0625C86.215 28.0122 85.2993 28.2415 84.5074 28.721C84.1974 28.9269 83.9456 29.2107 83.7767 29.5445C83.6078 29.8783 83.5275 30.2507 83.5436 30.6253V30.7C83.532 31.019 83.5985 31.3359 83.7374 31.6226C83.8762 31.9092 84.0831 32.1567 84.3395 32.3429C84.9391 32.761 85.6568 32.9707 86.3846 32.9404C87.4423 32.9905 88.4845 32.6677 89.3329 32.0273C89.6903 31.7551 89.9788 31.4013 90.1749 30.9948C90.371 30.5883 90.4692 30.1406 90.4613 29.6884V28.7651C89.4206 28.2778 88.2834 28.0374 87.1368 28.0625Z" fill="#414141"/>
<path d="M96.6115 41.7385L97.2832 37.346L101.215 37.3664C101.593 37.3825 101.968 37.2907 102.297 37.1016C102.628 36.8639 102.886 36.5353 103.039 36.1546L95.8157 17.4576H101.356L105.541 30.1395L109.57 17.4576H115.004L107.928 36.5348C107.257 38.4017 106.473 39.7358 105.578 40.5369C104.682 41.338 103.451 41.7385 101.884 41.7385H96.6115Z" fill="#414141"/>
<path d="M127.296 29.5247H122.242V36.2254H116.735V12.1992H127.03C128.914 12.1576 130.784 12.5257 132.514 13.2786C133.991 13.9033 135.245 14.9676 136.11 16.33C136.974 17.6924 137.408 19.2885 137.353 20.9061C137.413 22.5272 136.975 24.1272 136.098 25.4859C135.221 26.8446 133.949 27.8951 132.457 28.4928L137.783 36.2254H131.89L127.296 29.5247ZM126.725 16.7342H122.242V25.0983H126.728C128.369 25.0983 129.626 24.7305 130.499 23.9951C131.372 23.2596 131.801 22.2299 131.785 20.9061C131.785 19.5483 131.357 18.5129 130.499 17.8001C129.642 17.0872 128.384 16.7319 126.725 16.7342Z" fill="#414141"/>
<path d="M158.322 26.8331C158.322 26.867 158.322 27.0911 158.295 27.512C158.269 27.9329 158.252 28.3674 158.218 28.846H144.544C144.693 29.3027 144.901 29.7375 145.162 30.1393C145.438 30.5143 145.772 30.8411 146.153 31.1067C146.552 31.4131 146.987 31.6674 147.449 31.8637C147.925 32.0453 148.431 32.1318 148.94 32.1183C149.661 32.1045 150.373 31.9572 151.042 31.6838C151.86 31.3427 152.595 30.8248 153.195 30.1665L156.502 33.4557C155.722 34.4358 154.731 35.223 153.604 35.7572C152.299 36.3115 150.892 36.5744 149.477 36.5278C147.581 36.5656 145.703 36.1369 144.007 35.2786C142.481 34.5028 141.209 33.2982 140.343 31.8094C139.473 30.2771 139.028 28.5353 139.057 26.7686C139.033 25.0109 139.471 23.2783 140.326 21.7481C141.155 20.2831 142.367 19.077 143.829 18.2619C145.341 17.4509 147.025 17.0223 148.737 17.0129C150.449 17.0034 152.137 17.4133 153.658 18.2076C155.102 18.9918 156.289 20.1844 157.073 21.6395C157.929 23.2314 158.36 25.0215 158.322 26.8331ZM145.975 22.5492C145.629 22.8268 145.312 23.1384 145.028 23.4793C144.745 23.8266 144.538 24.2303 144.42 24.664H153.231C153.128 24.2532 152.941 23.8684 152.684 23.5336C152.414 23.2005 152.111 22.8957 151.781 22.6239C150.963 21.9123 149.911 21.5379 148.832 21.575C147.792 21.5227 146.771 21.8708 145.975 22.5492Z" fill="#414141"/>
<path d="M182.632 17.4576H188.062L181.611 36.2259H176.144L173.337 26.1781L170.674 36.2394H165.187L158.471 17.4712H164.012L167.675 30.1327L171.178 17.4712H175.449L179.143 30.1327L182.632 17.4576Z" fill="#414141"/>
<path d="M200.646 18.4425C201.807 19.0331 202.743 19.9949 203.309 21.1784C203.917 22.527 204.215 23.9976 204.179 25.4793V36.2263H199.141V34.2235C198.51 34.9545 197.73 35.5392 196.855 35.9377C195.829 36.3832 194.72 36.5986 193.604 36.5691C192.518 36.5852 191.441 36.364 190.447 35.9208C189.527 35.5088 188.739 34.8458 188.171 34.0063C187.575 33.0838 187.274 31.998 187.311 30.8969V30.8256C187.241 29.6732 187.552 28.53 188.194 27.5753C188.837 26.6206 189.775 25.9085 190.86 25.5505C192.09 25.1098 193.388 24.896 194.692 24.9192C195.516 24.9093 196.339 24.9787 197.15 25.1262C197.834 25.2603 198.507 25.444 199.165 25.6761V25.3706C199.14 23.1076 197.83 21.9761 195.233 21.9761H190.044V17.4377L195.998 17.492C197.892 17.492 199.441 17.8088 200.646 18.4425ZM195.924 28.0625C195.004 28.0126 194.089 28.2419 193.298 28.721C192.988 28.9269 192.737 29.2107 192.568 29.5445C192.399 29.8783 192.318 30.2507 192.335 30.6253V30.7C192.323 31.019 192.39 31.3359 192.528 31.6226C192.667 31.9092 192.874 32.1567 193.131 32.3429C193.73 32.761 194.448 32.9707 195.176 32.9404C196.233 32.9905 197.275 32.6677 198.124 32.0273C198.481 31.7549 198.769 31.401 198.964 30.9945C199.16 30.588 199.257 30.1404 199.249 29.6884V28.7651C198.208 28.2771 197.071 28.0367 195.924 28.0625Z" fill="#414141"/>
<path d="M219.035 17.4576H221.805L220.412 22.3355H219.035C218.166 22.3175 217.303 22.4768 216.496 22.8039C215.847 23.0666 215.253 23.4526 214.747 23.9411C214.328 24.3452 214.004 24.8394 213.8 25.3871C213.574 26.068 213.471 26.7842 213.494 27.5019V36.2258H208.188V17.4576H213.263V20.1732C213.825 19.2412 214.667 18.5156 215.667 18.1025C216.737 17.6654 217.881 17.4462 219.035 17.4576Z" fill="#414141"/>
<path d="M232.405 17.3755C233.082 17.6135 233.719 17.9571 234.292 18.3939C234.82 18.8029 235.302 19.2696 235.729 19.7856V10.7529H241.001V36.2116H235.746V33.4315C235.119 34.3179 234.319 35.0643 233.395 35.6244C232.344 36.2279 231.148 36.5252 229.94 36.4832C228.86 36.4844 227.791 36.2698 226.793 35.8518C225.764 35.4267 224.834 34.791 224.06 33.9849C223.228 33.1068 222.58 32.0676 222.156 30.9298C221.665 29.5983 221.426 28.1855 221.451 26.7647V26.6901C221.424 25.2679 221.66 23.8532 222.146 22.5182C222.565 21.3821 223.207 20.3431 224.033 19.4632C224.8 18.6559 225.725 18.019 226.75 17.5928C227.756 17.1741 228.834 16.9595 229.923 16.9614C230.768 16.9529 231.607 17.093 232.405 17.3755ZM227.351 29.5041C227.737 30.2521 228.317 30.8799 229.03 31.3202C229.707 31.7369 230.486 31.9544 231.28 31.9482C232.078 31.955 232.862 31.7325 233.54 31.3066C234.241 30.8631 234.809 30.2354 235.185 29.4905C235.609 28.6504 235.821 27.7177 235.803 26.7749V26.7003C235.824 25.7506 235.612 24.8105 235.185 23.9643C234.806 23.2221 234.238 22.5953 233.54 22.1482C232.863 21.7187 232.079 21.4938 231.28 21.4999C230.478 21.4939 229.692 21.7162 229.01 22.1414C228.299 22.5796 227.719 23.2035 227.331 23.9473C226.897 24.7974 226.682 25.7441 226.706 26.7003V26.7749C226.691 27.7249 226.912 28.6635 227.351 29.5041Z" fill="#414141"/>
<path d="M243.646 34.4739L245.399 30.5193C246.299 31.1072 247.28 31.5568 248.31 31.8533C249.4 32.1834 250.531 32.3537 251.668 32.3591C253.885 32.3591 254.993 31.7809 254.993 30.6245C254.993 30.095 254.695 29.7103 254.1 29.4704C253.192 29.1739 252.257 28.9737 251.309 28.8729C250.071 28.6877 248.847 28.4166 247.645 28.0617C246.681 27.7593 245.816 27.1972 245.144 26.4357C244.429 25.6663 244.072 24.5642 244.072 23.1294C244.057 21.9867 244.411 20.8702 245.08 19.9488C245.817 18.9584 246.823 18.205 247.974 17.7797C249.401 17.237 250.917 16.9766 252.441 17.0126C253.728 17.0133 255.011 17.1591 256.266 17.447C257.367 17.6723 258.424 18.0819 259.392 18.6589L257.659 22.5795C256.077 21.6441 254.274 21.1574 252.441 21.1708C251.319 21.1708 250.48 21.3304 249.919 21.6562C249.676 21.7667 249.468 21.9439 249.32 22.1677C249.171 22.3916 249.088 22.6531 249.079 22.9224C249.074 23.2024 249.16 23.4765 249.325 23.7018C249.489 23.9271 249.723 24.0911 249.989 24.1682C250.934 24.48 251.903 24.7072 252.887 24.8471C254.112 25.0406 255.323 25.3127 256.514 25.6618C257.458 25.9638 258.304 26.5186 258.962 27.2673C259.654 28.0526 260 29.1366 260 30.5193C260.012 31.6449 259.658 32.7434 258.992 33.6456C258.233 34.6283 257.209 35.3685 256.044 35.7774C254.578 36.3143 253.026 36.5721 251.467 36.5377C249.983 36.5399 248.505 36.3447 247.071 35.9573C245.854 35.6633 244.696 35.1616 243.646 34.4739Z" fill="#414141"/>
<path d="M47.1844 38.0338C47.1844 40.2274 46.2963 42.3311 44.7155 43.8822C43.1347 45.4333 40.9907 46.3048 38.7551 46.3048H8.42926C6.19368 46.3048 4.04966 45.4333 2.46887 43.8822C0.88808 42.3311 0 40.2274 0 38.0338V8.27098C0 6.07738 0.88808 3.97362 2.46887 2.42251C4.04966 0.871403 6.19368 0 8.42926 0H38.7616C40.9972 0 43.1412 0.871403 44.722 2.42251C46.3028 3.97362 47.1909 6.07738 47.1909 8.27098L47.1844 38.0338Z" fill="#3866AF"/>
<path d="M16.1854 22.9487C16.4625 22.3862 16.8848 21.9046 17.4103 21.5519C17.9358 21.1992 18.5463 20.9876 19.1811 20.9382H26.1644C26.6132 20.9519 27.0602 20.877 27.4789 20.7179C27.8976 20.5589 28.2795 20.3189 28.6019 20.0123C28.9243 19.7056 29.1806 19.3385 29.3556 18.9328C29.5307 18.5271 29.6209 18.0911 29.6209 17.6505C29.6209 17.2099 29.5307 16.7738 29.3556 16.3681C29.1806 15.9624 28.9243 15.5954 28.6019 15.2887C28.2795 14.9821 27.8976 14.7421 27.4789 14.583C27.0602 14.424 26.6132 14.3491 26.1644 14.3628H22.4458V7.27518H25.7753C29.6204 7.27518 33.7637 7.49467 36.2341 10.2495C38.9963 13.3384 39.1811 18.6096 36.4416 22.7324C33.3519 27.4023 28.1323 29.2474 23.1331 29.3491H20.2898L14.2953 29.4478C14.2953 29.4478 12.5998 29.3873 13.5173 27.7427L16.1854 22.9487Z" fill="white"/>
<path d="M14.7013 7.27518C14.5586 7.28179 14.4197 7.32194 14.2961 7.39225C14.1725 7.46255 14.068 7.56096 13.9913 7.67918C13.7806 8.18817 14.1631 8.69715 14.6851 9.63241C15.6901 11.4488 15.8911 11.8592 16.7405 13.1889C17.3889 14.0097 18.1443 14.331 19.493 14.3946H23.1306V7.27518H14.7013Z" fill="white"/>
<path d="M20.5361 30.4948C20.0725 33.0843 19.6056 35.7342 19.1388 38.3268C19.0977 38.5197 18.9922 38.6937 18.8389 38.8211C18.6856 38.9485 18.4933 39.0219 18.2926 39.0298H10.7484C9.50348 39.0298 9.15334 38.9121 8.92964 38.7117C8.70595 38.5113 8.75782 38.1709 8.96855 37.6619C8.96855 37.6619 10.515 33.8668 11.3936 32.2031C12.2722 30.5394 13.9677 30.4407 15.0441 30.4407C16.1205 30.4407 20.468 30.4916 20.468 30.4916L20.5361 30.4948Z" fill="#6DB3D6"/>
</svg>
