<svg width="238" height="47" viewBox="0 0 238 47" fill="none" xmlns="http://www.w3.org/2000/svg">
<path d="M209.122 12.3048C214.85 12.3048 217.37 15.2156 217.37 20.1273V30.6569H212.299V28.6941C211.018 30.0811 209.261 30.9941 206.707 30.9941C203.221 30.9941 200.359 29.0313 200.359 25.443V25.373C200.359 21.4124 203.429 19.5833 207.815 19.5833C209.361 19.5676 210.898 19.8207 212.354 20.3309V20.0127C212.354 17.8782 211.009 16.6948 208.386 16.6948H203.118V12.2412L209.122 12.3048ZM212.4 23.3434C211.347 22.8873 210.208 22.6563 209.057 22.6658C206.81 22.6658 205.429 23.5438 205.429 25.1694V25.2394C205.429 26.6263 206.603 27.4375 208.295 27.4375C210.743 27.4375 212.4 26.1174 212.4 24.2564V23.3434Z" fill="#414141"/>
<path d="M66.2135 30.9943C63.4189 30.9943 61.6941 29.741 60.4524 28.284V36.0714H55.2101V12.5087H60.4395V15.1141C61.7168 13.4217 63.474 12.1715 66.2006 12.1715C70.5157 12.1715 74.6298 15.4863 74.6298 21.5495V21.6163C74.6363 27.6764 70.5967 30.9943 66.2135 30.9943ZM69.3907 21.5495C69.3907 18.537 67.3223 16.5392 64.8519 16.5392C62.3815 16.5392 60.3681 18.537 60.3681 21.5495V21.6163C60.3681 24.6289 62.4042 26.6266 64.8519 26.6266C67.2996 26.6266 69.3907 24.6639 69.3907 21.6163V21.5495Z" fill="#414141"/>
<path d="M85.1251 12.3048C90.8537 12.3048 93.3728 15.2156 93.3728 20.1273V30.6569H88.3023V28.6941C87.0217 30.0811 85.2645 30.9941 82.7098 30.9941C79.2246 30.9941 76.3619 29.0313 76.3619 25.443V25.373C76.3619 21.4124 79.4321 19.5833 83.8185 19.5833C85.3646 19.5676 86.9013 19.8207 88.3574 20.3309V20.0127C88.3574 17.8782 87.0119 16.6948 84.3891 16.6948H79.1209V12.2412L85.1251 12.3048ZM88.4028 23.3434C87.3502 22.8873 86.2108 22.6563 85.0603 22.6658C82.8135 22.6658 81.4324 23.5438 81.4324 25.1694V25.2394C81.4324 26.6263 82.606 27.4375 84.2984 27.4375C86.7461 27.4375 88.4028 26.1174 88.4028 24.2564V23.3434Z" fill="#414141"/>
<path d="M100.59 36.1762H95.3024L95.98 31.8976H99.932C100.83 31.8976 101.316 31.6304 101.764 30.7142L94.5146 12.499H100.071L104.286 24.8577L108.326 12.499H113.779L106.669 31.0864C105.255 34.7765 103.735 36.1762 100.597 36.1762" fill="#414141"/>
<path d="M115.52 30.9018C115.052 30.8968 114.597 30.7561 114.21 30.4976C113.824 30.239 113.524 29.8741 113.349 29.4488C113.173 29.0234 113.13 28.5567 113.224 28.1073C113.319 27.6579 113.547 27.2459 113.879 26.9233C114.211 26.6006 114.634 26.3816 115.093 26.2939C115.552 26.2063 116.027 26.2538 116.458 26.4305C116.89 26.6072 117.259 26.9053 117.518 27.2871C117.777 27.669 117.916 28.1175 117.916 28.5764C117.91 29.1957 117.654 29.7876 117.206 30.2232C116.757 30.6587 116.151 30.9027 115.52 30.9018Z" fill="#3866AF"/>
<path d="M195.468 30.9018C195 30.8961 194.545 30.7549 194.159 30.496C193.773 30.2371 193.474 29.872 193.299 29.4466C193.124 29.0212 193.081 28.5546 193.176 28.1054C193.271 27.6562 193.499 27.2445 193.831 26.9222C194.164 26.5998 194.586 26.3812 195.045 26.2937C195.504 26.2063 195.979 26.254 196.41 26.4308C196.842 26.6076 197.21 26.9057 197.469 27.2874C197.728 27.6692 197.867 28.1176 197.867 28.5763C197.861 29.1962 197.605 29.7886 197.156 30.2243C196.706 30.6599 196.099 30.9035 195.468 30.9018Z" fill="#3866AF"/>
<path d="M129.78 31.0611C124.223 31.0611 120.152 26.8652 120.152 21.6831V21.6163C120.152 16.4342 124.191 12.1715 129.852 12.1715C133.334 12.1715 135.509 13.3199 137.234 15.2159L134.037 18.6038C132.863 17.3822 131.69 16.606 129.822 16.606C127.2 16.606 125.336 18.8742 125.336 21.5495V21.6163C125.336 24.3935 127.167 26.6266 130.03 26.6266C131.79 26.6266 132.996 25.8822 134.274 24.6957L137.344 27.7464C135.541 29.6742 133.476 31.0611 129.78 31.0611Z" fill="#414141"/>
<path d="M148.274 31.0611C142.549 31.0611 138.302 26.897 138.302 21.6831V21.6163C138.302 16.4024 142.578 12.1715 148.352 12.1715C154.126 12.1715 158.327 16.3356 158.327 21.5495V21.6163C158.318 26.8302 154.038 31.0611 148.274 31.0611ZM153.137 21.6163C153.137 18.941 151.169 16.606 148.274 16.606C145.272 16.606 143.476 18.8742 143.476 21.5495V21.6163C143.476 24.2917 145.444 26.6266 148.339 26.6266C151.341 26.6266 153.137 24.3585 153.137 21.6831V21.6163Z" fill="#414141"/>
<path d="M184.063 30.6571V20.5316C184.063 18.0948 182.958 16.8414 180.993 16.8414C179.029 16.8414 177.816 18.0948 177.816 20.5316V30.6571H172.574V20.5316C172.574 18.0948 171.468 16.8414 169.5 16.8414C167.532 16.8414 166.326 18.0948 166.326 20.5316V30.6571H161.084V12.5087H166.326V15.0822C167.536 13.5585 169.124 12.1715 171.779 12.1715C174.195 12.1715 176.023 13.2181 176.989 15.0345C178.61 13.1736 180.556 12.1715 183.065 12.1715C186.955 12.1715 189.306 14.4715 189.306 18.8519V30.6699L184.063 30.6571Z" fill="#414141"/>
<path d="M232.61 30.6566V28.083C231.401 29.6068 229.848 30.9938 227.193 30.9938C223.225 30.9938 220.91 28.4202 220.91 24.2561V12.5081H226.159V22.6306C226.159 25.0673 227.329 26.3207 229.333 26.3207C231.336 26.3207 232.61 25.0673 232.61 22.6306V12.5081H237.853V30.6566H232.61Z" fill="#414141"/>
<path d="M47.1844 38.229C47.1844 40.4226 46.2963 42.5264 44.7155 44.0775C43.1347 45.6286 40.9907 46.5 38.7551 46.5H8.42926C6.19368 46.5 4.04966 45.6286 2.46887 44.0775C0.888081 42.5264 0 40.4226 0 38.229V8.46622C0 6.27262 0.888081 4.16887 2.46887 2.61776C4.04966 1.06665 6.19368 0.195244 8.42926 0.195244H38.7616C40.9972 0.195244 43.1412 1.06665 44.722 2.61776C46.3028 4.16887 47.1909 6.27262 47.1909 8.46622L47.1844 38.229Z" fill="#3866AF"/>
<path d="M17.1856 22.9487C17.4627 22.3862 17.885 21.9046 18.4105 21.5519C18.936 21.1992 19.5465 20.9876 20.1813 20.9382H27.1646C27.6134 20.9519 28.0604 20.877 28.4791 20.718C28.8978 20.5589 29.2797 20.3189 29.6021 20.0123C29.9245 19.7056 30.1808 19.3386 30.3558 18.9329C30.5309 18.5272 30.6211 18.0911 30.6211 17.6505C30.6211 17.2099 30.5309 16.7739 30.3558 16.3682C30.1808 15.9625 29.9245 15.5954 29.6021 15.2887C29.2797 14.9821 28.8978 14.7421 28.4791 14.5831C28.0604 14.424 27.6134 14.3491 27.1646 14.3628H24.1308V7.2752H26.7755C30.6206 7.2752 34.7639 7.4947 37.2343 10.2496C39.9965 13.3385 40.1813 18.6096 37.4418 22.7324C34.3521 27.4023 29.1325 29.2474 24.1333 29.3492H21.29L15.2956 29.4478C15.2956 29.4478 13.6 29.3873 14.5175 27.7427L17.1856 22.9487Z" fill="white"/>
<path d="M15.7015 7.2752C15.5588 7.28181 15.4199 7.32196 15.2963 7.39227C15.1728 7.46258 15.0682 7.56098 14.9915 7.67921C14.7808 8.18819 15.1633 8.69717 15.6853 9.63243C16.6903 11.4489 16.8913 11.8592 17.7407 13.189C18.3891 14.0097 19.1513 14.4364 20.5 14.5L24.1308 14.3628V7.2752H15.7015Z" fill="white"/>
<path d="M21.5363 30.4948C21.0727 33.0843 20.6058 35.7342 20.139 38.3268C20.098 38.5198 19.9924 38.6937 19.8391 38.8211C19.6858 38.9485 19.4935 39.022 19.2928 39.0299H11.7486C10.5037 39.0299 10.1536 38.9121 9.92986 38.7117C9.70616 38.5113 9.75803 38.1709 9.96876 37.662C9.96876 37.662 11.5152 33.8669 12.3938 32.2031C13.2724 30.5394 14.968 30.4408 16.0443 30.4408C17.1207 30.4408 21.4682 30.4917 21.4682 30.4917L21.5363 30.4948Z" fill="#6DB3D6"/>
</svg>
